<svg xmlns="http://www.w3.org/2000/svg" viewBox="0 0 1400 1800" width="1400" height="1800">
  <defs>
    <style>
      .title-main { font-size: 28px; font-weight: bold; font-family: Arial, sans-serif; }
      .title-sub { font-size: 18px; font-weight: bold; font-family: Arial, sans-serif; }
      .label-axis { font-size: 14px; font-weight: bold; font-family: Arial, sans-serif; }
      .label-grid { font-size: 12px; font-family: Arial, sans-serif; }
      .legend-title { font-size: 16px; font-weight: bold; font-family: Arial, sans-serif; }
      .legend-text { font-size: 12px; font-family: Arial, sans-serif; }
      .grid-line { stroke: #999; stroke-width: 1; }
      .axis-line { stroke: #000; stroke-width: 2; }
    </style>
  </defs>

  <!-- Background -->
  <rect width="1400" height="1800" fill="white"/>

  <!-- MAIN TITLE -->
  <text x="700" y="40" text-anchor="middle" class="title-main">PETA KOORDINAT - SISTEM PENYIRAMAN</text>
  <text x="700" y="65" text-anchor="middle" class="title-sub">Grid 6×8 dengan Sumbu X-Y (Pengukuran dalam STEPS)</text>

  <!-- GRID SECTION (Left Side) -->
  <!-- Grid Background -->
  <rect x="60" y="100" width="360" height="360" fill="white" stroke="#ccc" stroke-width="1"/>

  <!-- Grid Lines -->
  <g class="grid-line">
    <line x1="110" y1="100" x2="110" y2="460"/>
    <line x1="160" y1="100" x2="160" y2="460"/>
    <line x1="210" y1="100" x2="210" y2="460"/>
    <line x1="260" y1="100" x2="260" y2="460"/>
    <line x1="310" y1="100" x2="310" y2="460"/>
    <line x1="360" y1="100" x2="360" y2="460"/>
    <line x1="410" y1="100" x2="410" y2="460"/>
    
    <line x1="60" y1="150" x2="420" y2="150"/>
    <line x1="60" y1="200" x2="420" y2="200"/>
    <line x1="60" y1="250" x2="420" y2="250"/>
    <line x1="60" y1="300" x2="420" y2="300"/>
    <line x1="60" y1="350" x2="420" y2="350"/>
    <line x1="60" y1="400" x2="420" y2="400"/>
  </g>

  <!-- Axes -->
  <line x1="60" y1="100" x2="420" y2="100" class="axis-line"/>
  <line x1="60" y1="100" x2="60" y2="460" class="axis-line"/>
  <line x1="60" y1="460" x2="420" y2="460" class="axis-line"/>
  <line x1="420" y1="100" x2="420" y2="460" class="axis-line"/>

  <!-- Axis Labels -->
  <text x="30" y="285" class="label-axis" text-anchor="middle" font-size="14" font-weight="bold">Y (steps)</text>
  <text x="240" y="495" class="label-axis" text-anchor="middle" font-size="14" font-weight="bold">X (steps)</text>

  <!-- Y-axis Scale Labels -->
  <text x="45" y="468" text-anchor="end" class="label-grid">0</text>
  <text x="45" y="418" text-anchor="end" class="label-grid">303</text>
  <text x="45" y="368" text-anchor="end" class="label-grid">605</text>
  <text x="45" y="318" text-anchor="end" class="label-grid">908</text>
  <text x="45" y="268" text-anchor="end" class="label-grid">1210</text>
  <text x="45" y="218" text-anchor="end" class="label-grid">1512</text>
  <text x="45" y="168" text-anchor="end" class="label-grid">1815</text>
  <text x="45" y="118" text-anchor="end" class="label-grid">2118</text>

  <!-- X-axis Scale Labels -->
  <text x="60" y="485" text-anchor="middle" class="label-grid">0</text>
  <text x="110" y="485" text-anchor="middle" class="label-grid">153</text>
  <text x="160" y="485" text-anchor="middle" class="label-grid">307</text>
  <text x="210" y="485" text-anchor="middle" class="label-grid">460</text>
  <text x="260" y="485" text-anchor="middle" class="label-grid">614</text>
  <text x="310" y="485" text-anchor="middle" class="label-grid">767</text>

  <!-- HOME Point (Red) -->
  <circle cx="60" cy="460" r="12" fill="#FF0000" stroke="#000" stroke-width="2"/>
  <text x="60" y="505" text-anchor="middle" class="label-grid" font-size="10" fill="#0066FF">HOME</text>

  <!-- Grid Points - All positions with GREEN (Zone A) and ORANGE (Zone B) -->
  <!-- Column 0 (X=0) -->
  <circle cx="60" cy="460" r="8" fill="#00AA00" stroke="#000" stroke-width="1.5"/>
  <text x="60" y="465" text-anchor="middle" class="label-grid" font-size="10" font-weight="bold">G1</text>
  <circle cx="60" cy="410" r="8" fill="#FFA500" stroke="#000" stroke-width="1.5"/>
  <text x="60" y="415" text-anchor="middle" class="label-grid" font-size="10" font-weight="bold">F1</text>
  <circle cx="60" cy="360" r="8" fill="#FFA500" stroke="#000" stroke-width="1.5"/>
  <text x="60" y="365" text-anchor="middle" class="label-grid" font-size="10" font-weight="bold">E1</text>
  <circle cx="60" cy="310" r="8" fill="#FFA500" stroke="#000" stroke-width="1.5"/>
  <text x="60" y="315" text-anchor="middle" class="label-grid" font-size="10" font-weight="bold">D1</text>
  <circle cx="60" cy="260" r="8" fill="#FFA500" stroke="#000" stroke-width="1.5"/>
  <text x="60" y="265" text-anchor="middle" class="label-grid" font-size="10" font-weight="bold">C1</text>
  <circle cx="60" cy="210" r="8" fill="#FFA500" stroke="#000" stroke-width="1.5"/>
  <text x="60" y="215" text-anchor="middle" class="label-grid" font-size="10" font-weight="bold">B1</text>
  <circle cx="60" cy="160" r="8" fill="#FFA500" stroke="#000" stroke-width="1.5"/>
  <text x="60" y="165" text-anchor="middle" class="label-grid" font-size="10" font-weight="bold">A1</text>

  <!-- Column 1 (X=153) -->
  <circle cx="110" cy="460" r="8" fill="#00AA00" stroke="#000" stroke-width="1.5"/>
  <text x="110" y="465" text-anchor="middle" class="label-grid" font-size="10" font-weight="bold">G2</text>
  <circle cx="110" cy="410" r="8" fill="#FFA500" stroke="#000" stroke-width="1.5"/>
  <text x="110" y="415" text-anchor="middle" class="label-grid" font-size="10" font-weight="bold">F2</text>
  <circle cx="110" cy="360" r="8" fill="#FFA500" stroke="#000" stroke-width="1.5"/>
  <text x="110" y="365" text-anchor="middle" class="label-grid" font-size="10" font-weight="bold">E2</text>
  <circle cx="110" cy="310" r="8" fill="#FFA500" stroke="#000" stroke-width="1.5"/>
  <text x="110" y="315" text-anchor="middle" class="label-grid" font-size="10" font-weight="bold">D2</text>
  <circle cx="110" cy="260" r="8" fill="#FFA500" stroke="#000" stroke-width="1.5"/>
  <text x="110" y="265" text-anchor="middle" class="label-grid" font-size="10" font-weight="bold">C2</text>
  <circle cx="110" cy="210" r="8" fill="#FFA500" stroke="#000" stroke-width="1.5"/>
  <text x="110" y="215" text-anchor="middle" class="label-grid" font-size="10" font-weight="bold">B2</text>
  <circle cx="110" cy="160" r="8" fill="#FFA500" stroke="#000" stroke-width="1.5"/>
  <text x="110" y="165" text-anchor="middle" class="label-grid" font-size="10" font-weight="bold">A2</text>

  <!-- Column 2 (X=307) -->
  <circle cx="160" cy="460" r="8" fill="#00AA00" stroke="#000" stroke-width="1.5"/>
  <text x="160" y="465" text-anchor="middle" class="label-grid" font-size="10" font-weight="bold">G3</text>
  <circle cx="160" cy="410" r="8" fill="#FFA500" stroke="#000" stroke-width="1.5"/>
  <text x="160" y="415" text-anchor="middle" class="label-grid" font-size="10" font-weight="bold">F3</text>
  <circle cx="160" cy="360" r="8" fill="#FFA500" stroke="#000" stroke-width="1.5"/>
  <text x="160" y="365" text-anchor="middle" class="label-grid" font-size="10" font-weight="bold">E3</text>
  <circle cx="160" cy="310" r="8" fill="#FFA500" stroke="#000" stroke-width="1.5"/>
  <text x="160" y="315" text-anchor="middle" class="label-grid" font-size="10" font-weight="bold">D3</text>
  <circle cx="160" cy="260" r="8" fill="#FFA500" stroke="#000" stroke-width="1.5"/>
  <text x="160" y="265" text-anchor="middle" class="label-grid" font-size="10" font-weight="bold">C3</text>
  <circle cx="160" cy="210" r="8" fill="#FFA500" stroke="#000" stroke-width="1.5"/>
  <text x="160" y="215" text-anchor="middle" class="label-grid" font-size="10" font-weight="bold">B3</text>
  <circle cx="160" cy="160" r="8" fill="#FFA500" stroke="#000" stroke-width="1.5"/>
  <text x="160" y="165" text-anchor="middle" class="label-grid" font-size="10" font-weight="bold">A3</text>

  <!-- Column 3 (X=460) -->
  <circle cx="210" cy="460" r="8" fill="#00AA00" stroke="#000" stroke-width="1.5"/>
  <text x="210" y="465" text-anchor="middle" class="label-grid" font-size="10" font-weight="bold">G4</text>
  <circle cx="210" cy="410" r="8" fill="#FFA500" stroke="#000" stroke-width="1.5"/>
  <text x="210" y="415" text-anchor="middle" class="label-grid" font-size="10" font-weight="bold">F4</text>
  <circle cx="210" cy="360" r="8" fill="#FFA500" stroke="#000" stroke-width="1.5"/>
  <text x="210" y="365" text-anchor="middle" class="label-grid" font-size="10" font-weight="bold">E4</text>
  <circle cx="210" cy="310" r="8" fill="#FFA500" stroke="#000" stroke-width="1.5"/>
  <text x="210" y="315" text-anchor="middle" class="label-grid" font-size="10" font-weight="bold">D4</text>
  <circle cx="210" cy="260" r="8" fill="#FFA500" stroke="#000" stroke-width="1.5"/>
  <text x="210" y="265" text-anchor="middle" class="label-grid" font-size="10" font-weight="bold">C4</text>
  <circle cx="210" cy="210" r="8" fill="#FFA500" stroke="#000" stroke-width="1.5"/>
  <text x="210" y="215" text-anchor="middle" class="label-grid" font-size="10" font-weight="bold">B4</text>
  <circle cx="210" cy="160" r="8" fill="#FFA500" stroke="#000" stroke-width="1.5"/>
  <text x="210" y="165" text-anchor="middle" class="label-grid" font-size="10" font-weight="bold">A4</text>

  <!-- Column 4 (X=614) -->
  <circle cx="260" cy="460" r="8" fill="#00AA00" stroke="#000" stroke-width="1.5"/>
  <text x="260" y="465" text-anchor="middle" class="label-grid" font-size="10" font-weight="bold">G5</text>
  <circle cx="260" cy="410" r="8" fill="#FFA500" stroke="#000" stroke-width="1.5"/>
  <text x="260" y="415" text-anchor="middle" class="label-grid" font-size="10" font-weight="bold">F5</text>
  <circle cx="260" cy="360" r="8" fill="#FFA500" stroke="#000" stroke-width="1.5"/>
  <text x="260" y="365" text-anchor="middle" class="label-grid" font-size="10" font-weight="bold">E5</text>
  <circle cx="260" cy="310" r="8" fill="#FFA500" stroke="#000" stroke-width="1.5"/>
  <text x="260" y="315" text-anchor="middle" class="label-grid" font-size="10" font-weight="bold">D5</text>
  <circle cx="260" cy="260" r="8" fill="#FFA500" stroke="#000" stroke-width="1.5"/>
  <text x="260" y="265" text-anchor="middle" class="label-grid" font-size="10" font-weight="bold">C5</text>
  <circle cx="260" cy="210" r="8" fill="#FFA500" stroke="#000" stroke-width="1.5"/>
  <text x="260" y="215" text-anchor="middle" class="label-grid" font-size="10" font-weight="bold">B5</text>
  <circle cx="260" cy="160" r="8" fill="#FFA500" stroke="#000" stroke-width="1.5"/>
  <text x="260" y="165" text-anchor="middle" class="label-grid" font-size="10" font-weight="bold">A5</text>

  <!-- Column 5 (X=767) -->
  <circle cx="310" cy="460" r="8" fill="#00AA00" stroke="#000" stroke-width="1.5"/>
  <text x="310" y="465" text-anchor="middle" class="label-grid" font-size="10" font-weight="bold">G6</text>
  <circle cx="310" cy="410" r="8" fill="#FFA500" stroke="#000" stroke-width="1.5"/>
  <text x="310" y="415" text-anchor="middle" class="label-grid" font-size="10" font-weight="bold">F6</text>
  <circle cx="310" cy="360" r="8" fill="#FFA500" stroke="#000" stroke-width="1.5"/>
  <text x="310" y="365" text-anchor="middle" class="label-grid" font-size="10" font-weight="bold">E6</text>
  <circle cx="310" cy="310" r="8" fill="#FFA500" stroke="#000" stroke-width="1.5"/>
  <text x="310" y="315" text-anchor="middle" class="label-grid" font-size="10" font-weight="bold">D6</text>
  <circle cx="310" cy="260" r="8" fill="#FFA500" stroke="#000" stroke-width="1.5"/>
  <text x="310" y="265" text-anchor="middle" class="label-grid" font-size="10" font-weight="bold">C6</text>
  <circle cx="310" cy="210" r="8" fill="#FFA500" stroke="#000" stroke-width="1.5"/>
  <text x="310" y="215" text-anchor="middle" class="label-grid" font-size="10" font-weight="bold">B6</text>
  <circle cx="310" cy="160" r="8" fill="#FFA500" stroke="#000" stroke-width="1.5"/>
  <text x="310" y="165" text-anchor="middle" class="label-grid" font-size="10" font-weight="bold">A6</text>

  <!-- LEGEND SECTION (Right Side) -->
  <rect x="480" y="100" width="420" height="200" fill="white" stroke="#000" stroke-width="2"/>
  <text x="690" y="135" text-anchor="middle" class="legend-title">Keterangan</text>
  
  <!-- Legend Items -->
  <circle cx="510" cy="160" r="8" fill="#FF0000" stroke="#000" stroke-width="1.5"/>
  <text x="540" y="165" class="legend-text">HOME / Posisi Start (H1)</text>
  
  <circle cx="510" cy="200" r="8" fill="#00AA00" stroke="#000" stroke-width="1.5"/>
  <text x="540" y="205" class="legend-text">ZONA A (Baris G-H)</text>
  
  <circle cx="510" cy="240" r="8" fill="#FFA500" stroke="#000" stroke-width="1.5"/>
  <text x="540" y="245" class="legend-text">ZONA B (Baris A-D)</text>

  <!-- DATA TABLE SECTION -->
  <text x="700" y="650" text-anchor="middle" class="title-sub">TABEL KOORDINAT - SEMUA TITIK PENYIRAMAN</text>
  
  <!-- Simplified Table -->
  <g font-family="Arial, sans-serif" font-size="10">
    <!-- Header Row -->
    <rect x="60" y="670" width="50" height="25" fill="#E0E0E0" stroke="#000" stroke-width="1"/>
    <text x="85" y="688" text-anchor="middle" font-weight="bold">SEL</text>
    
    <rect x="110" y="670" width="60" height="25" fill="#E0E0E0" stroke="#000" stroke-width="1"/>
    <text x="140" y="688" text-anchor="middle" font-weight="bold">X (steps)</text>
    
    <rect x="170" y="670" width="60" height="25" fill="#E0E0E0" stroke="#000" stroke-width="1"/>
    <text x="200" y="688" text-anchor="middle" font-weight="bold">Y (steps)</text>
    
    <rect x="230" y="670" width="50" height="25" fill="#E0E0E0" stroke="#000" stroke-width="1"/>
    <text x="255" y="688" text-anchor="middle" font-weight="bold">SEL</text>
    
    <rect x="280" y="670" width="60" height="25" fill="#E0E0E0" stroke="#000" stroke-width="1"/>
    <text x="310" y="688" text-anchor="middle" font-weight="bold">X (steps)</text>
    
    <rect x="340" y="670" width="60" height="25" fill="#E0E0E0" stroke="#000" stroke-width="1"/>
    <text x="370" y="688" text-anchor="middle" font-weight="bold">Y (steps)</text>
    
    <rect x="400" y="670" width="50" height="25" fill="#E0E0E0" stroke="#000" stroke-width="1"/>
    <text x="425" y="688" text-anchor="middle" font-weight="bold">SEL</text>
    
    <rect x="450" y="670" width="60" height="25" fill="#E0E0E0" stroke="#000" stroke-width="1"/>
    <text x="480" y="688" text-anchor="middle" font-weight="bold">X (steps)</text>
    
    <rect x="510" y="670" width="60" height="25" fill="#E0E0E0" stroke="#000" stroke-width="1"/>
    <text x="540" y="688" text-anchor="middle" font-weight="bold">Y (steps)</text>

    <!-- Data Rows -->
    <rect x="60" y="695" width="50" height="18" fill="white" stroke="#000" stroke-width="1"/>
    <text x="85" y="707" text-anchor="middle" font-size="9">H1</text>
    <rect x="110" y="695" width="60" height="18" fill="white" stroke="#000" stroke-width="1"/>
    <text x="140" y="707" text-anchor="middle" font-size="9">0</text>
    <rect x="170" y="695" width="60" height="18" fill="white" stroke="#000" stroke-width="1"/>
    <text x="200" y="707" text-anchor="middle" font-size="9">0</text>
    <rect x="230" y="695" width="50" height="18" fill="white" stroke="#000" stroke-width="1"/>
    <text x="255" y="707" text-anchor="middle" font-size="9">G1</text>
    <rect x="280" y="695" width="60" height="18" fill="white" stroke="#000" stroke-width="1"/>
    <text x="310" y="707" text-anchor="middle" font-size="9">0</text>
    <rect x="340" y="695" width="60" height="18" fill="white" stroke="#000" stroke-width="1"/>
    <text x="370" y="707" text-anchor="middle" font-size="9">303</text>
    <rect x="400" y="695" width="50" height="18" fill="white" stroke="#000" stroke-width="1"/>
    <text x="425" y="707" text-anchor="middle" font-size="9">G2</text>
    <rect x="450" y="695" width="60" height="18" fill="white" stroke="#000" stroke-width="1"/>
    <text x="480" y="707" text-anchor="middle" font-size="9">153</text>
    <rect x="510" y="695" width="60" height="18" fill="white" stroke="#000" stroke-width="1"/>
    <text x="540" y="707" text-anchor="middle" font-size="9">303</text>

    <!-- Row 2 -->
    <rect x="60" y="713" width="50" height="18" fill="white" stroke="#000" stroke-width="1"/>
    <text x="85" y="725" text-anchor="middle" font-size="9">F1</text>
    <rect x="110" y="713" width="60" height="18" fill="white" stroke="#000" stroke-width="1"/>
    <text x="140" y="725" text-anchor="middle" font-size="9">0</text>
    <rect x="170" y="713" width="60" height="18" fill="white" stroke="#000" stroke-width="1"/>
    <text x="200" y="725" text-anchor="middle" font-size="9">605</text>
    <rect x="230" y="713" width="50" height="18" fill="white" stroke="#000" stroke-width="1"/>
    <text x="255" y="725" text-anchor="middle" font-size="9">F2</text>
    <rect x="280" y="713" width="60" height="18" fill="white" stroke="#000" stroke-width="1"/>
    <text x="310" y="725" text-anchor="middle" font-size="9">153</text>
    <rect x="340" y="713" width="60" height="18" fill="white" stroke="#000" stroke-width="1"/>
    <text x="370" y="725" text-anchor="middle" font-size="9">605</text>
    <rect x="400" y="713" width="50" height="18" fill="white" stroke="#000" stroke-width="1"/>
    <text x="425" y="725" text-anchor="middle" font-size="9">G3</text>
    <rect x="450" y="713" width="60" height="18" fill="white" stroke="#000" stroke-width="1"/>
    <text x="480" y="725" text-anchor="middle" font-size="9">307</text>
    <rect x="510" y="713" width="60" height="18" fill="white" stroke="#000" stroke-width="1"/>
    <text x="540" y="725" text-anchor="middle" font-size="9">303</text>

    <!-- Row 3 -->
    <rect x="60" y="731" width="50" height="18" fill="white" stroke="#000" stroke-width="1"/>
    <text x="85" y="743" text-anchor="middle" font-size="9">E1</text>
    <rect x="110" y="731" width="60" height="18" fill="white" stroke="#000" stroke-width="1"/>
    <text x="140" y="743" text-anchor="middle" font-size="9">0</text>
    <rect x="170" y="731" width="60" height="18" fill="white" stroke="#000" stroke-width="1"/>
    <text x="200" y="743" text-anchor="middle" font-size="9">908</text>
    <rect x="230" y="731" width="50" height="18" fill="white" stroke="#000" stroke-width="1"/>
    <text x="255" y="743" text-anchor="middle" font-size="9">F3</text>
    <rect x="280" y="731" width="60" height="18" fill="white" stroke="#000" stroke-width="1"/>
    <text x="310" y="743" text-anchor="middle" font-size="9">307</text>
    <rect x="340" y="731" width="60" height="18" fill="white" stroke="#000" stroke-width="1"/>
    <text x="370" y="743" text-anchor="middle" font-size="9">605</text>
    <rect x="400" y="731" width="50" height="18" fill="white" stroke="#000" stroke-width="1"/>
    <text x="425" y="743" text-anchor="middle" font-size="9">G4</text>
    <rect x="450" y="731" width="60" height="18" fill="white" stroke="#000" stroke-width="1"/>
    <text x="480" y="743" text-anchor="middle" font-size="9">460</text>
    <rect x="510" y="731" width="60" height="18" fill="white" stroke="#000" stroke-width="1"/>
    <text x="540" y="743" text-anchor="middle" font-size="9">303</text>

    <!-- Row 4 -->
    <rect x="60" y="749" width="50" height="18" fill="white" stroke="#000" stroke-width="1"/>
    <text x="85" y="761" text-anchor="middle" font-size="9">D1</text>
    <rect x="110" y="749" width="60" height="18" fill="white" stroke="#000" stroke-width="1"/>
    <text x="140" y="761" text-anchor="middle" font-size="9">0</text>
    <rect x="170" y="749" width="60" height="18" fill="white" stroke="#000" stroke-width="1"/>
    <text x="200" y="761" text-anchor="middle" font-size="9">1210</text>
    <rect x="230" y="749" width="50" height="18" fill="white" stroke="#000" stroke-width="1"/>
    <text x="255" y="761" text-anchor="middle" font-size="9">F4</text>
    <rect x="280" y="749" width="60" height="18" fill="white" stroke="#000" stroke-width="1"/>
    <text x="310" y="761" text-anchor="middle" font-size="9">460</text>
    <rect x="340" y="749" width="60" height="18" fill="white" stroke="#000" stroke-width="1"/>
    <text x="370" y="761" text-anchor="middle" font-size="9">605</text>
    <rect x="400" y="749" width="50" height="18" fill="white" stroke="#000" stroke-width="1"/>
    <text x="425" y="761" text-anchor="middle" font-size="9">G5</text>
    <rect x="450" y="749" width="60" height="18" fill="white" stroke="#000" stroke-width="1"/>
    <text x="480" y="761" text-anchor="middle" font-size="9">614</text>
    <rect x="510" y="749" width="60" height="18" fill="white" stroke="#000" stroke-width="1"/>
    <text x="540" y="761" text-anchor="middle" font-size="9">303</text>

    <!-- Row 5 -->
    <rect x="60" y="767" width="50" height="18" fill="white" stroke="#000" stroke-width="1"/>
    <text x="85" y="779" text-anchor="middle" font-size="9">C1</text>
    <rect x="110" y="767" width="60" height="18" fill="white" stroke="#000" stroke-width="1"/>
    <text x="140" y="779" text-anchor="middle" font-size="9">0</text>
    <rect x="170" y="767" width="60" height="18" fill="white" stroke="#000" stroke-width="1"/>
    <text x="200" y="779" text-anchor="middle" font-size="9">1512</text>
    <rect x="230" y="767" width="50" height="18" fill="white" stroke="#000" stroke-width="1"/>
    <text x="255" y="779" text-anchor="middle" font-size="9">F5</text>
    <rect x="280" y="767" width="60" height="18" fill="white" stroke="#000" stroke-width="1"/>
    <text x="310" y="779" text-anchor="middle" font-size="9">614</text>
    <rect x="340" y="767" width="60" height="18" fill="white" stroke="#000" stroke-width="1"/>
    <text x="370" y="779" text-anchor="middle" font-size="9">605</text>
    <rect x="400" y="767" width="50" height="18" fill="white" stroke="#000" stroke-width="1"/>
    <text x="425" y="779" text-anchor="middle" font-size="9">G6</text>
    <rect x="450" y="767" width="60" height="18" fill="white" stroke="#000" stroke-width="1"/>
    <text x="480" y="779" text-anchor="middle" font-size="9">767</text>
    <rect x="510" y="767" width="60" height="18" fill="white" stroke="#000" stroke-width="1"/>
    <text x="540" y="779" text-anchor="middle" font-size="9">303</text>

    <!-- Row 6 -->
    <rect x="60" y="785" width="50" height="18" fill="white" stroke="#000" stroke-width="1"/>
    <text x="85" y="797" text-anchor="middle" font-size="9">B1</text>
    <rect x="110" y="785" width="60" height="18" fill="white" stroke="#000" stroke-width="1"/>
    <text x="140" y="797" text-anchor="middle" font-size="9">0</text>
    <rect x="170" y="785" width="60" height="18" fill="white" stroke="#000" stroke-width="1"/>
    <text x="200" y="797" text-anchor="middle" font-size="9">1815</text>
    <rect x="230" y="785" width="50" height="18" fill="white" stroke="#000" stroke-width="1"/>
    <text x="255" y="797" text-anchor="middle" font-size="9">A1</text>
    <rect x="280" y="785" width="60" height="18" fill="white" stroke="#000" stroke-width="1"/>
    <text x="310" y="797" text-anchor="middle" font-size="9">0</text>
    <rect x="340" y="785" width="60" height="18" fill="white" stroke="#000" stroke-width="1"/>
    <text x="370" y="797" text-anchor="middle" font-size="9">2118</text>
    <rect x="400" y="785" width="50" height="18" fill="white" stroke="#000" stroke-width="1"/>
    <text x="425" y="797" text-anchor="middle" font-size="9">A2</text>
    <rect x="450" y="785" width="60" height="18" fill="white" stroke="#000" stroke-width="1"/>
    <text x="480" y="797" text-anchor="middle" font-size="9">153</text>
    <rect x="510" y="785" width="60" height="18" fill="white" stroke="#000" stroke-width="1"/>
    <text x="540" y="797" text-anchor="middle" font-size="9">2118</text>

    <!-- Row 7 -->
    <rect x="60" y="803" width="50" height="18" fill="white" stroke="#000" stroke-width="1"/>
    <text x="85" y="815" text-anchor="middle" font-size="9">A1</text>
    <rect x="110" y="803" width="60" height="18" fill="white" stroke="#000" stroke-width="1"/>
    <text x="140" y="815" text-anchor="middle" font-size="9">0</text>
    <rect x="170" y="803" width="60" height="18" fill="white" stroke="#000" stroke-width="1"/>
    <text x="200" y="815" text-anchor="middle" font-size="9">2118</text>
    <rect x="230" y="803" width="50" height="18" fill="white" stroke="#000" stroke-width="1"/>
    <text x="255" y="815" text-anchor="middle" font-size="9">A3</text>
    <rect x="280" y="803" width="60" height="18" fill="white" stroke="#000" stroke-width="1"/>
    <text x="310" y="815" text-anchor="middle" font-size="9">307</text>
    <rect x="340" y="803" width="60" height="18" fill="white" stroke="#000" stroke-width="1"/>
    <text x="370" y="815" text-anchor="middle" font-size="9">2118</text>
    <rect x="400" y="803" width="50" height="18" fill="white" stroke="#000" stroke-width="1"/>
    <text x="425" y="815" text-anchor="middle" font-size="9">A4</text>
    <rect x="450" y="803" width="60" height="18" fill="white" stroke="#000" stroke-width="1"/>
    <text x="480" y="815" text-anchor="middle" font-size="9">460</text>
    <rect x="510" y="803" width="60" height="18" fill="white" stroke="#000" stroke-width="1"/>
    <text x="540" y="815" text-anchor="middle" font-size="9">2118</text>
  </g>

  <!-- SYSTEM INFORMATION SECTION -->
  <rect x="60" y="840" width="500" height="110" fill="white" stroke="#000" stroke-width="2"/>
  <text x="310" y="862" text-anchor="middle" class="title-sub">RINGKASAN INFORMASI SISTEM</text>
  
  <g font-family="Arial, sans-serif" font-size="11">
    <!-- Left column -->
    <text x="80" y="890" font-weight="bold">TATA LETAK GRID:</text>
    <text x="100" y="910">• Total Titik Penyiraman: 48 buah (6 kolom × 8 baris)</text>
    <text x="100" y="930">• Jarak Antar Kolom (X): ~153 steps</text>
    <text x="100" y="950">• Jarak Antar Baris (Y): ~303 steps</text>
    
    <!-- Right column -->
    <text x="330" y="890" font-weight="bold">DIMENSI TOTAL:</text>
    <text x="350" y="910">• Range X: 0 - 767 steps</text>
    <text x="350" y="930">• Range Y: 0 - 2118 steps</text>
    <text x="350" y="950">• HOME: H1 (0, 0)</text>
  </g>
</svg>